<svg width="20" height="20" viewBox="0 0 20 20" fill="none" xmlns="http://www.w3.org/2000/svg">
<path d="M10 18.3334C14.6024 18.3334 18.3333 14.6025 18.3333 10.0001C18.3333 5.39771 14.6024 1.66675 10 1.66675C5.39763 1.66675 1.66667 5.39771 1.66667 10.0001C1.66667 14.6025 5.39763 18.3334 10 18.3334Z" stroke="#323232" stroke-width="1.5" stroke-linecap="round" stroke-linejoin="round"/>
<path d="M10.275 14.5416C10.125 14.5916 9.86666 14.5916 9.71666 14.5416C8.41666 14.0999 5.5 12.2416 5.5 9.09161C5.5 7.69994 6.61667 6.57495 8 6.57495C8.81667 6.57495 9.54166 6.96661 10 7.58328C10.45 6.97494 11.1833 6.57495 12 6.57495C13.3833 6.57495 14.5 7.69994 14.5 9.09161C14.5 12.2416 11.5833 14.0999 10.275 14.5416Z" stroke="#323232" stroke-width="1.5" stroke-linecap="round" stroke-linejoin="round"/>
</svg>
