<svg width="31" height="30" viewBox="0 0 31 30" fill="none" xmlns="http://www.w3.org/2000/svg">
<path d="M27.15 10.8299C24.435 10.8299 23.325 8.9099 24.675 6.5549C25.455 5.1899 24.99 3.4499 23.625 2.6699L21.03 1.1849C19.845 0.479905 18.315 0.899905 17.61 2.0849L17.445 2.3699C16.095 4.7249 13.875 4.7249 12.51 2.3699L12.345 2.0849C11.67 0.899905 10.14 0.479905 8.955 1.1849L6.36 2.6699C4.995 3.4499 4.53 5.20491 5.31 6.56991C6.675 8.9099 5.565 10.8299 2.85 10.8299C1.29 10.8299 0 12.1049 0 13.6799V16.3199C0 17.8799 1.275 19.1699 2.85 19.1699C5.565 19.1699 6.675 21.0899 5.31 23.4449C4.53 24.8099 4.995 26.5499 6.36 27.3299L8.955 28.8149C10.14 29.5199 11.67 29.0999 12.375 27.9149L12.54 27.6299C13.89 25.2749 16.11 25.2749 17.475 27.6299L17.64 27.9149C18.345 29.0999 19.875 29.5199 21.06 28.8149L23.655 27.3299C25.02 26.5499 25.485 24.7949 24.705 23.4449C23.34 21.0899 24.45 19.1699 27.165 19.1699C28.725 19.1699 30.015 17.8949 30.015 16.3199V13.6799C30 12.1199 28.725 10.8299 27.15 10.8299ZM15 19.8749C12.315 19.8749 10.125 17.6849 10.125 14.9999C10.125 12.3149 12.315 10.1249 15 10.1249C17.685 10.1249 19.875 12.3149 19.875 14.9999C19.875 17.6849 17.685 19.8749 15 19.8749Z" fill="#292D32"/>
</svg>
